<?xml version="1.0" standalone="no"?>
<!DOCTYPE svg PUBLIC "-//W3C//DTD SVG 20010904//EN"
 "http://www.w3.org/TR/2001/REC-SVG-20010904/DTD/svg10.dtd">
<svg version="1.0" xmlns="http://www.w3.org/2000/svg"
 width="133.000000pt" height="124.000000pt" viewBox="0 0 133.000000 124.000000"
 preserveAspectRatio="xMidYMid meet">

<g transform="translate(0.000000,124.000000) scale(0.100000,-0.100000)"
fill="#000000" stroke="none">
<path d="M347 1183 c-8 -10 -19 -30 -22 -45 -4 -16 -22 -47 -41 -70 -39 -49
-43 -90 -19 -163 l16 -45 -52 -62 c-29 -35 -61 -83 -72 -107 -25 -57 -33 -151
-17 -224 l11 -57 99 0 c55 0 102 4 105 10 4 7 12 7 25 0 23 -12 60 -13 80 0
12 8 10 14 -12 37 -44 47 -74 194 -56 275 11 46 10 52 -7 64 -17 12 -8 14 71
14 50 0 94 3 97 7 4 3 -1 15 -10 26 -17 20 -17 20 2 12 52 -20 63 -18 109 29
47 46 56 72 34 94 -20 20 -41 15 -35 -8 3 -11 2 -20 -3 -20 -4 0 -10 9 -13 19
-3 11 -22 27 -42 35 -21 9 -70 37 -110 62 -58 37 -74 52 -79 77 -6 31 -23 57
-36 57 -4 0 -14 -8 -23 -17z m131 -175 c8 -10 4 -13 -14 -13 -24 0 -30 6 -17
18 10 10 19 8 31 -5z m-217 -429 c6 -12 8 -36 4 -55 -5 -29 -3 -34 14 -34 11
0 23 -5 27 -12 5 -8 2 -9 -10 -5 -10 4 -27 7 -38 7 -18 0 -19 4 -14 34 4 18 2
45 -4 60 -12 32 4 36 21 5z"/>
<path d="M553 730 c-22 -9 -23 -13 -23 -165 l0 -155 55 0 55 0 0 35 c0 20 6
37 13 39 6 2 31 9 55 15 35 10 46 19 58 46 28 68 12 154 -34 175 -35 16 -150
23 -179 10z m115 -121 c-5 -35 -28 -36 -28 -1 0 16 3 32 7 36 11 11 25 -10 21
-35z"/>
<path d="M810 575 l0 -165 105 0 105 0 0 45 c0 43 -1 45 -29 45 -16 0 -42 5
-58 12 l-28 11 35 6 c31 5 35 10 38 39 3 29 0 34 -27 43 -46 16 -37 29 20 29
l50 0 -3 48 -3 47 -102 3 -103 3 0 -166z"/>
<path d="M1043 733 c-16 -6 -17 -65 -1 -81 7 -7 22 -12 35 -12 23 0 23 -2 23
-115 l0 -115 55 0 55 0 0 115 c0 114 0 115 24 115 34 0 49 23 42 65 l-7 35
-107 -1 c-59 0 -113 -3 -119 -6z"/>
<path d="M102 353 c-27 -4 -36 -11 -48 -40 -26 -62 0 -114 74 -143 46 -18 40
-29 -20 -32 l-53 -3 0 -40 c0 -37 2 -40 30 -43 101 -12 185 29 185 89 0 38
-49 92 -99 109 -56 18 -41 34 25 26 l54 -6 0 39 c0 38 0 38 -46 45 -26 3 -52
5 -58 4 -6 0 -26 -3 -44 -5z"/>
<path d="M283 354 c-16 -7 -17 -56 -1 -72 7 -7 20 -12 30 -12 15 0 18 -12 20
-107 l3 -107 35 -3 c69 -4 70 -3 70 112 l0 104 28 3 c24 3 27 7 27 43 l0 40
-100 2 c-55 1 -106 -1 -112 -3z"/>
<path d="M571 347 c-34 -17 -61 -66 -68 -124 -11 -95 47 -173 128 -173 32 0
82 27 98 52 22 35 27 158 8 195 -28 53 -111 78 -166 50z m71 -142 c0 -51 -8
-67 -22 -45 -11 17 -13 93 -3 104 14 13 25 -13 25 -59z"/>
<path d="M810 351 l-25 -7 0 -144 0 -145 48 -3 47 -3 0 57 c0 65 8 64 31 -4
15 -46 16 -47 62 -50 56 -4 58 4 25 80 -19 44 -20 54 -9 82 22 55 24 66 11 96
-9 21 -23 33 -49 40 -40 11 -103 12 -141 1z m104 -80 c3 -5 -1 -14 -8 -20 -16
-13 -32 2 -21 19 8 12 22 13 29 1z"/>
<path d="M1051 346 c-8 -9 -11 -57 -9 -152 l3 -139 98 -3 97 -3 0 46 0 45 -44
0 c-55 0 -69 16 -24 28 28 7 33 13 33 38 0 24 -5 30 -29 34 -46 8 -36 25 17
28 l48 3 -3 42 -3 42 -86 3 c-65 2 -89 -1 -98 -12z"/>
</g>
</svg>
